<?xml version="1.0" encoding="iso-8859-1"?>
<!-- Generator: Adobe Illustrator 19.0.0, SVG Export Plug-In . SVG Version: 6.00 Build 0)  -->
<svg version="1.1" id="Capa_1" xmlns="http://www.w3.org/2000/svg" xmlns:xlink="http://www.w3.org/1999/xlink" x="0px" y="0px"
	 viewBox="0 0 512 512" style="enable-background:new 0 0 512 512;" xml:space="preserve">
<g transform="matrix(1.25 0 0 -1.25 0 45)">
	<g>
		<path style="fill:#77B255;" d="M403.866-373.6v56.889c0,37.706-30.561,68.267-68.267,68.267H153.555
			c-37.695,0-68.267-30.561-68.267-68.267V-373.6H403.866z"/>
		<path style="fill:#AF7E57;" d="M194.966-249.655c0-10.171,26.852-22.664,49.607-22.664s49.607,12.493,49.607,22.664v43.429
			h-99.214V-249.655z"/>
		<path style="fill:#9B6A49;" d="M194.877-225.376c13.836-15.633,30.993-19.866,49.652-19.866c18.648,0,35.806,4.244,49.652,19.866
			v39.72h-99.305V-225.376z"/>
		<g>
			<path style="fill:#AF7E57;" d="M169.988-111.181c0-16.475-8.351-29.832-18.648-29.832s-18.648,13.357-18.648,29.832
				s8.351,29.844,18.648,29.844C161.637-81.337,169.988-94.706,169.988-111.181"/>
			<path style="fill:#AF7E57;" d="M356.455-111.181c0-16.475-8.34-29.832-18.648-29.832c-10.297,0-18.637,13.357-18.637,29.832
				s8.34,29.844,18.637,29.844C348.115-81.337,356.455-94.706,356.455-111.181"/>
			<path style="fill:#AF7E57;" d="M147.61-122.829c0,63.59,43.418,115.155,96.973,115.155s96.961-51.564,96.961-115.155
				s-43.406-115.155-96.961-115.155S147.61-186.419,147.61-122.829"/>
		</g>
		<path style="fill:#915A34;" d="M244.577-200.679c-31.334,0-40.96,8.021-42.565,9.649c-2.913,2.913-2.913,7.635,0,10.547
			c2.822,2.822,7.339,2.89,10.263,0.262c0.591-0.421,8.204-5.541,32.301-5.541c25.031,0,32.268,5.518,32.335,5.575
			c2.913,2.901,7.475,2.765,10.388-0.171c2.913-2.913,2.753-7.759-0.159-10.673C285.537-192.657,275.912-200.679,244.577-200.679"/>
		<g>
			<path style="fill:#60352A;" d="M244.577,36c64.262,0,104.425-52.872,104.425-92.399c0-39.503-8.033-55.319-16.065-39.503
				c-8.033,15.793-16.065,31.608-16.065,31.608s-48.197,0-64.262,15.815c0,0,24.098-47.423-24.098,0c0,0,8.033-31.63-40.164,7.896
				c0,0-24.098-15.815-32.131-55.319c-2.23-10.98-16.065,0-16.065,39.503C140.152-16.872,172.283,36,244.577,36"/>
			<path style="fill:#60352A;" d="M199.066-123.289L199.066-123.289c-6.258,0-11.378,5.12-11.378,11.378v11.378
				c0,6.258,5.12,11.378,11.378,11.378s11.378-5.12,11.378-11.378v-11.378C210.444-118.169,205.324-123.289,199.066-123.289"/>
			<path style="fill:#60352A;" d="M290.088-123.289L290.088-123.289c-6.258,0-11.378,5.12-11.378,11.378v11.378
				c0,6.258,5.12,11.378,11.378,11.378s11.378-5.12,11.378-11.378v-11.378C301.466-118.169,296.346-123.289,290.088-123.289"/>
		</g>
		<path style="fill:#915A34;" d="M253.111-154.578h-17.067c-4.699,0-8.533,3.834-8.533,8.533c0,4.699,3.834,8.533,8.533,8.533
			h17.067c4.699,0,8.533-3.834,8.533-8.533C261.644-150.744,257.81-154.578,253.111-154.578"/>
	</g>
	<g>
		<g>
			<path style="fill:#E1E8ED;" d="M381.111-362.222c0-6.292-5.086-11.378-11.378-11.378H255.955
				c-6.292,0-11.378,5.086-11.378,11.378s5.086,11.378,11.378,11.378h113.778C376.025-350.844,381.111-355.93,381.111-362.222"/>
			<path style="fill:#E1E8ED;" d="M235.933-214.311H48.415c-17.339,0-39.572-8.773-28.194-40.175l34.952-96.427
				c0,0,4.517-22.687,30.117-22.687h227.556l-45.511,127.886C262.352-230.661,253.272-214.311,235.933-214.311"/>
		</g>
		<path style="fill:#99AAB5;" d="M224.555-214.311H37.037c-17.339,0-39.572-8.773-28.194-40.175l34.952-96.427
			c0,0,4.517-22.687,30.117-22.687h227.556l-45.511,127.886C250.974-230.661,241.894-214.311,224.555-214.311"/>
		<g>
			<path style="fill:#E1E8ED;" d="M165.155-297.177c5.962-17.886,1.126-35.612-10.797-39.583
				c-11.924-3.971-26.419,7.293-32.381,25.179c-5.962,17.897-1.126,35.612,10.797,39.583
				C144.698-268.017,159.194-279.292,165.155-297.177"/>
			<path style="fill:#E1E8ED;" d="M221.822-245.6H39.777c-4.71,0-8.533,3.823-8.533,8.533s3.823,8.533,8.533,8.533h182.044
				c4.71,0,8.533-3.823,8.533-8.533S226.533-245.6,221.822-245.6"/>
		</g>
	</g>
</g>
<g>
</g>
<g>
</g>
<g>
</g>
<g>
</g>
<g>
</g>
<g>
</g>
<g>
</g>
<g>
</g>
<g>
</g>
<g>
</g>
<g>
</g>
<g>
</g>
<g>
</g>
<g>
</g>
<g>
</g>
</svg>
